<svg xmlns="http://www.w3.org/2000/svg" xmlns:xlink="http://www.w3.org/1999/xlink" version="1.1" id="Layer_2" x="0px" y="0px" width="100px" height="100px" viewBox="5.0 -10.0 100.0 135.0" enable-background="new 0 0 100 100" xml:space="preserve">
<circle cx="57" cy="18" r="1.5"/>
<circle cx="43" cy="18" r="1.5"/>
<circle cx="57" cy="31" r="1.5"/>
<circle cx="43" cy="31" r="1.5"/>
<path d="M57,13H43c-2.761,0-5,2.239-5,5v13c0,2.761,2.239,5,5,5h0.167h13.667C59.595,36,62,33.761,62,31V18  C62,15.239,59.761,13,57,13z M57,15c1.654,0,3,1.346,3,3s-1.346,3-3,3s-3-1.346-3-3S55.346,15,57,15z M43,15c1.654,0,3,1.346,3,3  s-1.346,3-3,3s-3-1.346-3-3S41.346,15,43,15z M43,34c-1.654,0-3-1.346-3-3s1.346-3,3-3s3,1.346,3,3S44.654,34,43,34z M57,34  c-1.654,0-3-1.346-3-3s1.346-3,3-3s3,1.346,3,3S58.654,34,57,34z"/>
<path d="M33,92c0,1.657,1.343,3,3,3s3-1.343,3-3V77h-6V92z"/>
<path d="M61,92c0,1.657,1.343,3,3,3s3-1.343,3-3V77h-6V92z"/>
<path d="M42.333,92c0,1.657,1.343,3,3,3s3-1.343,3-3V77h-6V92z"/>
<path d="M51.667,92c0,1.657,1.343,3,3,3s3-1.343,3-3V77h-6V92z"/>
<path d="M22,64v11l3-3l3,3V64c0-1.657,1.343-3,3-3v-6C26.03,55,22,59.03,22,64z"/>
<path d="M33,75V41c0-1.1,0.9-2,2-2h30c1.1,0,2,0.9,2,2v34H33z M42,46.5c0-0.828-0.672-1.5-1.5-1.5S39,45.672,39,46.5v13  c0,0.828,0.672,1.5,1.5,1.5s1.5-0.672,1.5-1.5V46.5z M48.333,46.5c0-0.828-0.672-1.5-1.5-1.5s-1.5,0.672-1.5,1.5v13  c0,0.828,0.672,1.5,1.5,1.5s1.5-0.672,1.5-1.5V46.5z M54.667,46.5c0-0.828-0.672-1.5-1.5-1.5s-1.5,0.672-1.5,1.5v13  c0,0.828,0.672,1.5,1.5,1.5s1.5-0.672,1.5-1.5V46.5z M61,46.5c0-0.828-0.672-1.5-1.5-1.5S58,45.672,58,46.5v13  c0,0.828,0.672,1.5,1.5,1.5s1.5-0.672,1.5-1.5V46.5z"/>
<path d="M31,45v6c-7.18,0-13,5.82-13,13v7l-3-3l-3,3v-7C12,53.506,20.507,45,31,45z"/>
<path d="M78,64v11l-3-3l-3,3V64c0-1.657-1.343-3-3-3v-6C73.97,55,78,59.03,78,64z"/>
<path d="M69,45v6c7.18,0,13,5.82,13,13v7l3-3l3,3v-7C88,53.506,79.493,45,69,45z"/>
<text x="0.0" y="117.5" font-size="5.0" font-weight="bold" font-family="Helvetica Neue, Helvetica, Arial-Unicode, Arial, Sans-serif" fill="#000000">Created by Alexander Wiefel</text><text x="0.0" y="122.5" font-size="5.0" font-weight="bold" font-family="Helvetica Neue, Helvetica, Arial-Unicode, Arial, Sans-serif" fill="#000000">from the Noun Project</text></svg>