<svg xmlns="http://www.w3.org/2000/svg" viewBox="0 0 224.2 222.7" enable-background="new 0 0 224.2 222.7"><style type="text/css">.st0{fill:#4F9AD4;}</style><path class="st0" d="M37.4 95.9s-1.6-3.8-1.6-8.4l1.6-8.4c-.2 0-31.8 8.4-31.8 8.4s31.6 8.4 31.8 8.4zM186.8 79s1.6 3.8 1.6 8.4l-1.6 8.4c.2 0 31.8-8.4 31.8-8.4s-31.6-8.4-31.8-8.4z"/><circle class="st0" cx="79.5" cy="87" r="9.5"/><path class="st0" d="M170.3 75.2c1.2 0 2.2 1 2.2 2.2v20.1c0 1.2-1 2.2-2.2 2.2h-116.4c-1.2 0-2.2-1-2.2-2.2v-20.1c0-1.2 1-2.2 2.2-2.2h116.4m0-11.4h-116.4c-7.5 0-13.6 6.1-13.6 13.6v20.1c0 7.5 6.1 13.6 13.6 13.6h116.4c7.5 0 13.6-6.1 13.6-13.6v-20.1c0-7.5-6.1-13.6-13.6-13.6zM111.3 145.5c-17.2 0-31.8 26-31.8 56.9 0 3.5.2 7 .6 10.3 8.8 2.8 19.6 4.4 31.3 4.4s22.4-1.7 31.2-4.4c.4-3.4.6-6.8.6-10.3-.1-30.9-14.7-56.9-31.9-56.9zm-19.2 55.5c0 2.1-1.7 3.8-3.8 3.8-2.1 0-3.8-1.7-3.8-3.8v-13.1c0-2.1 1.7-3.8 3.8-3.8 2.1 0 3.8 1.7 3.8 3.8v13.1zm15.1 0c0 2.1-1.7 3.8-3.8 3.8-2.1 0-3.8-1.7-3.8-3.8v-13.1c0-2.1 1.7-3.8 3.8-3.8 2.1 0 3.8 1.7 3.8 3.8v13.1zm15.1 0c0 2.1-1.7 3.8-3.8 3.8-2.1 0-3.8-1.7-3.8-3.8v-13.1c0-2.1 1.7-3.8 3.8-3.8 2.1 0 3.8 1.7 3.8 3.8v13.1zm15.1 0c0 2.1-1.7 3.8-3.8 3.8-2.1 0-3.8-1.7-3.8-3.8v-13.1c0-2.1 1.7-3.8 3.8-3.8 2.1 0 3.8 1.7 3.8 3.8v13.1zM57 101.4v9.7h78.6c1.5 0 2.6 1.2 2.6 2.6 0 1.5-1.2 2.6-2.6 2.6h-78.6v76.5c0 6.5 5.8 12.4 15.1 16.7-.2-2.4-.2-4.8-.2-7.3 0-36.1 17.3-64.4 39.3-64.4 22.1 0 39.3 28.3 39.3 64.4 0 2.5-.1 4.9-.2 7.3 9.4-4.3 15.1-10.2 15.1-16.7v-91.5h-108.4zM111.3 52.2c-1.9 0-3.4-1.5-3.4-3.4s1.5-3.4 3.4-3.4h53.7c-.6-1.9-1.3-3.7-2.1-5.5h-32c-3.2 0-5.7-2.6-5.7-5.7s2.6-5.7 5.7-5.7h25.4c-10.4-14-26.7-22.8-45.1-22.8-28.8-.1-52.6 21.4-56.2 50.8h112.5c-.2-1.5-.4-2.9-.7-4.4l-55.5.1zm3.9-24.1c3.3 0 6 2.7 6 6s-2.7 6-6 6-6-2.7-6-6 2.7-6 6-6z"/></svg>